<mxfile host="Electron" agent="Mozilla/5.0 (X11; Linux x86_64) AppleWebKit/537.36 (KHTML, like Gecko) draw.io/24.7.8 Chrome/128.0.6613.36 Electron/32.0.1 Safari/537.36" version="24.7.8">
  <diagram name="Página-1" id="MxU5FaAEq2_MuYe4qmwM">
    <mxGraphModel dx="832" dy="535" grid="1" gridSize="10" guides="1" tooltips="1" connect="1" arrows="1" fold="1" page="1" pageScale="1" pageWidth="827" pageHeight="1169" math="0" shadow="0">
      <root>
        <mxCell id="0" />
        <mxCell id="1" parent="0" />
        <mxCell id="6cCtuZJf8ejRdw-vcGY8-17" style="edgeStyle=orthogonalEdgeStyle;rounded=0;orthogonalLoop=1;jettySize=auto;html=1;fontFamily=Helvetica;fontSize=12;fontColor=default;dashed=1;" parent="1" source="6cCtuZJf8ejRdw-vcGY8-5" target="6cCtuZJf8ejRdw-vcGY8-13" edge="1">
          <mxGeometry relative="1" as="geometry" />
        </mxCell>
        <mxCell id="6cCtuZJf8ejRdw-vcGY8-21" value="" style="edgeLabel;html=1;align=center;verticalAlign=middle;resizable=0;points=[];strokeColor=default;fontFamily=Helvetica;fontSize=12;fontColor=default;fillColor=default;" parent="6cCtuZJf8ejRdw-vcGY8-17" vertex="1" connectable="0">
          <mxGeometry x="-0.4333" y="2" relative="1" as="geometry">
            <mxPoint as="offset" />
          </mxGeometry>
        </mxCell>
        <mxCell id="6cCtuZJf8ejRdw-vcGY8-5" value="Usuário" style="shape=umlActor;verticalLabelPosition=bottom;verticalAlign=top;html=1;" parent="1" vertex="1">
          <mxGeometry x="110" y="130" width="30" height="60" as="geometry" />
        </mxCell>
        <mxCell id="6cCtuZJf8ejRdw-vcGY8-8" style="edgeStyle=orthogonalEdgeStyle;rounded=0;orthogonalLoop=1;jettySize=auto;html=1;dashed=1;" parent="1" source="6cCtuZJf8ejRdw-vcGY8-6" target="6cCtuZJf8ejRdw-vcGY8-5" edge="1">
          <mxGeometry relative="1" as="geometry" />
        </mxCell>
        <mxCell id="6cCtuZJf8ejRdw-vcGY8-6" value="Morador&lt;div&gt;&lt;br&gt;&lt;/div&gt;" style="shape=umlActor;verticalLabelPosition=bottom;verticalAlign=top;html=1;" parent="1" vertex="1">
          <mxGeometry x="50" y="280" width="30" height="60" as="geometry" />
        </mxCell>
        <mxCell id="6cCtuZJf8ejRdw-vcGY8-9" style="edgeStyle=orthogonalEdgeStyle;rounded=0;orthogonalLoop=1;jettySize=auto;html=1;dashed=1;" parent="1" source="6cCtuZJf8ejRdw-vcGY8-7" target="6cCtuZJf8ejRdw-vcGY8-5" edge="1">
          <mxGeometry relative="1" as="geometry" />
        </mxCell>
        <mxCell id="6cCtuZJf8ejRdw-vcGY8-7" value="Segurança" style="shape=umlActor;verticalLabelPosition=bottom;verticalAlign=top;html=1;" parent="1" vertex="1">
          <mxGeometry x="170" y="280" width="30" height="60" as="geometry" />
        </mxCell>
        <mxCell id="6cCtuZJf8ejRdw-vcGY8-20" style="edgeStyle=orthogonalEdgeStyle;rounded=0;orthogonalLoop=1;jettySize=auto;html=1;fontFamily=Helvetica;fontSize=12;fontColor=default;dashed=1;" parent="1" source="6cCtuZJf8ejRdw-vcGY8-12" target="6cCtuZJf8ejRdw-vcGY8-19" edge="1">
          <mxGeometry relative="1" as="geometry" />
        </mxCell>
        <mxCell id="6cCtuZJf8ejRdw-vcGY8-12" value="Acessar Tela Criar Conta" style="ellipse;shape=umlControl;whiteSpace=wrap;html=1;labelPosition=center;verticalLabelPosition=bottom;align=center;verticalAlign=top;" parent="1" vertex="1">
          <mxGeometry x="343.5" y="120" width="70" height="80" as="geometry" />
        </mxCell>
        <mxCell id="6cCtuZJf8ejRdw-vcGY8-18" value="Clique" style="edgeStyle=orthogonalEdgeStyle;rounded=0;orthogonalLoop=1;jettySize=auto;html=1;fontFamily=Helvetica;fontSize=12;fontColor=default;align=center;dashed=1;" parent="1" source="6cCtuZJf8ejRdw-vcGY8-13" target="6cCtuZJf8ejRdw-vcGY8-12" edge="1">
          <mxGeometry x="-0.0551" y="10" relative="1" as="geometry">
            <mxPoint as="offset" />
          </mxGeometry>
        </mxCell>
        <mxCell id="6cCtuZJf8ejRdw-vcGY8-13" value="Tela de Login" style="shape=umlBoundary;whiteSpace=wrap;html=1;labelPosition=center;verticalLabelPosition=bottom;align=center;verticalAlign=top;" parent="1" vertex="1">
          <mxGeometry x="200" y="125" width="80" height="70" as="geometry" />
        </mxCell>
        <mxCell id="6cCtuZJf8ejRdw-vcGY8-19" value="Tela de Criar Conta" style="shape=umlBoundary;whiteSpace=wrap;html=1;labelPosition=center;verticalLabelPosition=bottom;align=center;verticalAlign=top;" parent="1" vertex="1">
          <mxGeometry x="460" y="125" width="80" height="70" as="geometry" />
        </mxCell>
        <mxCell id="6cCtuZJf8ejRdw-vcGY8-22" value="&lt;p style=&quot;line-height: 100%;&quot;&gt;&lt;font style=&quot;font-size: 12px;&quot;&gt;Preencher Formulário de informações&amp;nbsp;&lt;/font&gt;&lt;/p&gt;" style="ellipse;shape=umlControl;whiteSpace=wrap;html=1;labelPosition=center;verticalLabelPosition=bottom;align=center;verticalAlign=top;" parent="1" vertex="1">
          <mxGeometry x="470" y="280" width="70" height="80" as="geometry" />
        </mxCell>
        <mxCell id="6cCtuZJf8ejRdw-vcGY8-23" style="edgeStyle=orthogonalEdgeStyle;rounded=0;orthogonalLoop=1;jettySize=auto;html=1;entryX=0.514;entryY=0.156;entryDx=0;entryDy=0;entryPerimeter=0;fontFamily=Helvetica;fontSize=12;fontColor=default;dashed=1;" parent="1" source="6cCtuZJf8ejRdw-vcGY8-19" target="e5lZWVB2Wkmk8c08fPM--3" edge="1">
          <mxGeometry relative="1" as="geometry">
            <Array as="points">
              <mxPoint x="500" y="260" />
              <mxPoint x="326" y="260" />
            </Array>
          </mxGeometry>
        </mxCell>
        <mxCell id="5ou4u4AHkEh7iwNS_TwY-2" style="edgeStyle=orthogonalEdgeStyle;shape=connector;rounded=0;orthogonalLoop=1;jettySize=auto;html=1;dashed=1;strokeColor=default;align=center;verticalAlign=middle;fontFamily=Helvetica;fontSize=12;fontColor=default;labelBackgroundColor=default;endArrow=classic;" parent="1" source="6cCtuZJf8ejRdw-vcGY8-26" target="5ou4u4AHkEh7iwNS_TwY-1" edge="1">
          <mxGeometry relative="1" as="geometry" />
        </mxCell>
        <mxCell id="6cCtuZJf8ejRdw-vcGY8-26" value="Requisitar Criação de Conta" style="ellipse;shape=umlControl;whiteSpace=wrap;html=1;labelPosition=center;verticalLabelPosition=bottom;align=center;verticalAlign=top;" parent="1" vertex="1">
          <mxGeometry x="690" y="280" width="70" height="80" as="geometry" />
        </mxCell>
        <mxCell id="6cCtuZJf8ejRdw-vcGY8-27" style="edgeStyle=orthogonalEdgeStyle;rounded=0;orthogonalLoop=1;jettySize=auto;html=1;entryX=0;entryY=0.5;entryDx=0;entryDy=0;entryPerimeter=0;fontFamily=Helvetica;fontSize=12;fontColor=default;dashed=1;" parent="1" source="6cCtuZJf8ejRdw-vcGY8-22" target="6cCtuZJf8ejRdw-vcGY8-26" edge="1">
          <mxGeometry relative="1" as="geometry" />
        </mxCell>
        <mxCell id="6cCtuZJf8ejRdw-vcGY8-28" value="Apertar em Criar Conta" style="edgeLabel;html=1;align=center;verticalAlign=middle;resizable=0;points=[];strokeColor=default;fontFamily=Helvetica;fontSize=12;fontColor=default;fillColor=default;" parent="6cCtuZJf8ejRdw-vcGY8-27" vertex="1" connectable="0">
          <mxGeometry x="-0.0125" y="1" relative="1" as="geometry">
            <mxPoint y="-9" as="offset" />
          </mxGeometry>
        </mxCell>
        <mxCell id="6cCtuZJf8ejRdw-vcGY8-29" value="Mostrar Mensagem de Erro&lt;div&gt;&lt;br&gt;&lt;/div&gt;" style="ellipse;shape=umlControl;whiteSpace=wrap;html=1;labelPosition=center;verticalLabelPosition=bottom;align=center;verticalAlign=top;" parent="1" vertex="1">
          <mxGeometry x="690" y="70" width="70" height="80" as="geometry" />
        </mxCell>
        <mxCell id="6cCtuZJf8ejRdw-vcGY8-31" style="edgeStyle=orthogonalEdgeStyle;rounded=0;orthogonalLoop=1;jettySize=auto;html=1;entryX=0.55;entryY=0.038;entryDx=0;entryDy=0;entryPerimeter=0;fontFamily=Helvetica;fontSize=12;fontColor=default;dashed=1;" parent="1" source="6cCtuZJf8ejRdw-vcGY8-29" target="6cCtuZJf8ejRdw-vcGY8-13" edge="1">
          <mxGeometry relative="1" as="geometry">
            <Array as="points">
              <mxPoint x="244" y="70" />
            </Array>
          </mxGeometry>
        </mxCell>
        <mxCell id="6cCtuZJf8ejRdw-vcGY8-32" value="Apertar em Ok" style="edgeLabel;html=1;align=center;verticalAlign=middle;resizable=0;points=[];strokeColor=default;fontFamily=Helvetica;fontSize=12;fontColor=default;fillColor=default;" parent="6cCtuZJf8ejRdw-vcGY8-31" vertex="1" connectable="0">
          <mxGeometry x="0.0721" y="-1" relative="1" as="geometry">
            <mxPoint as="offset" />
          </mxGeometry>
        </mxCell>
        <mxCell id="6cCtuZJf8ejRdw-vcGY8-41" value="Mostrar Mensagem de Sucesso" style="ellipse;shape=umlControl;whiteSpace=wrap;html=1;labelPosition=center;verticalLabelPosition=bottom;align=center;verticalAlign=top;" parent="1" vertex="1">
          <mxGeometry x="690" y="440" width="70" height="80" as="geometry" />
        </mxCell>
        <mxCell id="6cCtuZJf8ejRdw-vcGY8-45" style="edgeStyle=orthogonalEdgeStyle;rounded=0;orthogonalLoop=1;jettySize=auto;html=1;entryX=0.533;entryY=1.03;entryDx=0;entryDy=0;entryPerimeter=0;fontFamily=Helvetica;fontSize=12;fontColor=default;dashed=1;" parent="1" source="6cCtuZJf8ejRdw-vcGY8-41" target="6cCtuZJf8ejRdw-vcGY8-13" edge="1">
          <mxGeometry relative="1" as="geometry" />
        </mxCell>
        <mxCell id="6cCtuZJf8ejRdw-vcGY8-46" value="Aperta em OK" style="edgeLabel;html=1;align=center;verticalAlign=middle;resizable=0;points=[];strokeColor=default;fontFamily=Helvetica;fontSize=12;fontColor=default;fillColor=default;" parent="6cCtuZJf8ejRdw-vcGY8-45" vertex="1" connectable="0">
          <mxGeometry x="-0.1249" y="2" relative="1" as="geometry">
            <mxPoint x="80" y="-2" as="offset" />
          </mxGeometry>
        </mxCell>
        <mxCell id="5ou4u4AHkEh7iwNS_TwY-1" value="Banco de dados" style="ellipse;shape=umlEntity;whiteSpace=wrap;html=1;labelPosition=center;verticalLabelPosition=bottom;align=center;verticalAlign=top;strokeColor=default;fontFamily=Helvetica;fontSize=12;fontColor=default;fillColor=default;" parent="1" vertex="1">
          <mxGeometry x="910" y="282.5" width="70" height="75" as="geometry" />
        </mxCell>
        <mxCell id="5ou4u4AHkEh7iwNS_TwY-4" style="edgeStyle=orthogonalEdgeStyle;shape=connector;rounded=0;orthogonalLoop=1;jettySize=auto;html=1;dashed=1;strokeColor=default;align=center;verticalAlign=middle;fontFamily=Helvetica;fontSize=12;fontColor=default;labelBackgroundColor=default;endArrow=classic;" parent="1" source="6cCtuZJf8ejRdw-vcGY8-26" target="6cCtuZJf8ejRdw-vcGY8-41" edge="1">
          <mxGeometry relative="1" as="geometry" />
        </mxCell>
        <mxCell id="5ou4u4AHkEh7iwNS_TwY-5" value="Sucesso" style="edgeLabel;html=1;align=center;verticalAlign=middle;resizable=0;points=[];strokeColor=default;fontFamily=Helvetica;fontSize=12;fontColor=default;labelBackgroundColor=default;fillColor=default;" parent="5ou4u4AHkEh7iwNS_TwY-4" vertex="1" connectable="0">
          <mxGeometry x="-0.1678" relative="1" as="geometry">
            <mxPoint y="27" as="offset" />
          </mxGeometry>
        </mxCell>
        <mxCell id="5ou4u4AHkEh7iwNS_TwY-6" style="edgeStyle=orthogonalEdgeStyle;shape=connector;rounded=0;orthogonalLoop=1;jettySize=auto;html=1;entryX=0.5;entryY=1;entryDx=0;entryDy=0;entryPerimeter=0;dashed=1;strokeColor=default;align=center;verticalAlign=middle;fontFamily=Helvetica;fontSize=12;fontColor=default;labelBackgroundColor=default;endArrow=classic;exitX=0.5;exitY=0.163;exitDx=0;exitDy=0;exitPerimeter=0;" parent="1" source="6cCtuZJf8ejRdw-vcGY8-26" target="6cCtuZJf8ejRdw-vcGY8-29" edge="1">
          <mxGeometry relative="1" as="geometry" />
        </mxCell>
        <mxCell id="5ou4u4AHkEh7iwNS_TwY-7" value="Falha na Criação" style="edgeLabel;html=1;align=center;verticalAlign=middle;resizable=0;points=[];strokeColor=default;fontFamily=Helvetica;fontSize=12;fontColor=default;labelBackgroundColor=default;fillColor=default;" parent="5ou4u4AHkEh7iwNS_TwY-6" vertex="1" connectable="0">
          <mxGeometry x="-0.1977" relative="1" as="geometry">
            <mxPoint y="14" as="offset" />
          </mxGeometry>
        </mxCell>
        <mxCell id="uKYg9FfMPZsRV7HgNyRu-1" style="edgeStyle=orthogonalEdgeStyle;shape=connector;rounded=0;orthogonalLoop=1;jettySize=auto;html=1;entryX=0.8;entryY=0.238;entryDx=0;entryDy=0;entryPerimeter=0;dashed=1;strokeColor=default;align=center;verticalAlign=middle;fontFamily=Helvetica;fontSize=12;fontColor=default;labelBackgroundColor=default;endArrow=classic;exitX=0.143;exitY=0.233;exitDx=0;exitDy=0;exitPerimeter=0;" parent="1" source="5ou4u4AHkEh7iwNS_TwY-1" target="6cCtuZJf8ejRdw-vcGY8-26" edge="1">
          <mxGeometry relative="1" as="geometry" />
        </mxCell>
        <mxCell id="uKYg9FfMPZsRV7HgNyRu-2" value="Retorno de Status" style="edgeLabel;html=1;align=center;verticalAlign=middle;resizable=0;points=[];strokeColor=default;fontFamily=Helvetica;fontSize=12;fontColor=default;labelBackgroundColor=default;fillColor=default;" parent="uKYg9FfMPZsRV7HgNyRu-1" vertex="1" connectable="0">
          <mxGeometry x="0.3137" relative="1" as="geometry">
            <mxPoint x="21" as="offset" />
          </mxGeometry>
        </mxCell>
        <mxCell id="e5lZWVB2Wkmk8c08fPM--3" value="Mostrar Formulário" style="ellipse;shape=umlControl;whiteSpace=wrap;html=1;labelPosition=center;verticalLabelPosition=bottom;align=center;verticalAlign=top;" vertex="1" parent="1">
          <mxGeometry x="290" y="277.5" width="70" height="80" as="geometry" />
        </mxCell>
        <mxCell id="e5lZWVB2Wkmk8c08fPM--4" style="edgeStyle=orthogonalEdgeStyle;shape=connector;rounded=0;orthogonalLoop=1;jettySize=auto;html=1;entryX=0.057;entryY=0.475;entryDx=0;entryDy=0;entryPerimeter=0;dashed=1;strokeColor=default;align=center;verticalAlign=middle;fontFamily=Helvetica;fontSize=12;fontColor=default;labelBackgroundColor=default;endArrow=classic;" edge="1" parent="1" source="e5lZWVB2Wkmk8c08fPM--3" target="6cCtuZJf8ejRdw-vcGY8-22">
          <mxGeometry relative="1" as="geometry" />
        </mxCell>
      </root>
    </mxGraphModel>
  </diagram>
</mxfile>
